<svg width="24" height="24" viewBox="0 0 24 24" fill="none" xmlns="http://www.w3.org/2000/svg">
<path d="M7.84082 12.4578C7.84082 9.9079 9.9079 7.84082 12.4578 7.84082L19.3832 7.84082C21.9331 7.84082 24.0002 9.9079 24.0002 12.4578C24.0002 15.0077 21.9331 17.0747 19.3832 17.0747H12.4578C9.9079 17.0747 7.84082 15.0077 7.84082 12.4578Z" fill="#FF868E"/>
<path d="M12.4578 24C9.9079 24 7.84082 21.9329 7.84082 19.383L7.84082 12.4576C7.84082 9.90772 9.9079 7.84063 12.4578 7.84063C15.0077 7.84063 17.0747 9.90772 17.0747 12.4576V19.383C17.0747 21.9329 15.0077 24 12.4578 24Z" fill="#FF868E"/>
<path d="M11.5427 2.8856C11.5427 4.47927 10.2508 5.7712 8.65709 5.7712C7.06341 5.7712 5.77148 4.47927 5.77148 2.8856C5.77148 1.29193 7.06341 0 8.65709 0C10.2508 0 11.5427 1.29193 11.5427 2.8856Z" fill="#FF868E"/>
<path d="M5.7712 16.7367C5.7712 18.3303 4.47927 19.6223 2.8856 19.6223C1.29193 19.6223 0 18.3303 0 16.7367C0 15.143 1.29193 13.8511 2.8856 13.8511C4.47927 13.8511 5.7712 15.143 5.7712 16.7367Z" fill="#FF868E"/>
<path d="M19.6218 2.8856C19.6218 4.47927 18.3299 5.7712 16.7362 5.7712C15.1425 5.7712 13.8506 4.47927 13.8506 2.8856C13.8506 1.29193 15.1425 0 16.7362 0C18.3299 0 19.6218 1.29193 19.6218 2.8856Z" fill="#FF868E"/>
<path d="M5.7712 8.6566C5.7712 10.2503 4.47927 11.5422 2.8856 11.5422C1.29193 11.5422 0 10.2503 0 8.6566C0 7.06292 1.29193 5.771 2.8856 5.771C4.47927 5.771 5.7712 7.06292 5.7712 8.6566Z" fill="#FF868E"/>
</svg>
